<svg width="32" height="32" viewBox="0 0 32 32" fill="none" xmlns="http://www.w3.org/2000/svg">
<path d="M9.33337 29.3333C8.60004 29.3333 7.97249 29.0724 7.45071 28.5507C6.92893 28.0289 6.6676 27.4009 6.66671 26.6667C6.66582 25.9324 6.92715 25.3049 7.45071 24.784C7.97426 24.2631 8.60182 24.0018 9.33337 24C10.0649 23.9982 10.6929 24.2595 11.2174 24.784C11.7418 25.3084 12.0027 25.936 12 26.6667C11.9974 27.3973 11.7365 28.0253 11.2174 28.5507C10.6983 29.076 10.0703 29.3369 9.33337 29.3333ZM22.6667 29.3333C21.9334 29.3333 21.3058 29.0724 20.784 28.5507C20.2623 28.0289 20.0009 27.4009 20 26.6667C19.9992 25.9324 20.2605 25.3049 20.784 24.784C21.3076 24.2631 21.9352 24.0018 22.6667 24C23.3983 23.9982 24.0263 24.2595 24.5507 24.784C25.0752 25.3084 25.336 25.936 25.3334 26.6667C25.3307 27.3973 25.0698 28.0253 24.5507 28.5507C24.0316 29.076 23.4036 29.3369 22.6667 29.3333ZM8.20004 7.99999L11.4 14.6667H20.7334L24.4 7.99999H8.20004ZM6.93337 5.33332H26.6C27.1112 5.33332 27.5 5.56132 27.7667 6.01732C28.0334 6.47332 28.0445 6.93421 27.8 7.39999L23.0667 15.9333C22.8223 16.3778 22.4947 16.7222 22.084 16.9667C21.6734 17.2111 21.2232 17.3333 20.7334 17.3333H10.8L9.33337 20H25.3334V22.6667H9.33337C8.33337 22.6667 7.57782 22.228 7.06671 21.3507C6.5556 20.4733 6.53337 19.6009 7.00004 18.7333L8.80004 15.4667L4.00004 5.33332H1.33337V2.66666H5.66671L6.93337 5.33332Z" fill="black"/>
</svg>
