<svg width="32" height="32" viewBox="0 0 32 32" fill="none" xmlns="http://www.w3.org/2000/svg">
<path d="M16 5.33333C17.4145 5.33333 18.7711 5.89523 19.7713 6.89543C20.7715 7.89562 21.3334 9.25217 21.3334 10.6667C21.3334 12.0811 20.7715 13.4377 19.7713 14.4379C18.7711 15.4381 17.4145 16 16 16C14.5856 16 13.229 15.4381 12.2288 14.4379C11.2286 13.4377 10.6667 12.0811 10.6667 10.6667C10.6667 9.25217 11.2286 7.89562 12.2288 6.89543C13.229 5.89523 14.5856 5.33333 16 5.33333ZM16 7.99999C15.2928 7.99999 14.6145 8.28095 14.1144 8.78104C13.6143 9.28114 13.3334 9.95942 13.3334 10.6667C13.3334 11.3739 13.6143 12.0522 14.1144 12.5523C14.6145 13.0524 15.2928 13.3333 16 13.3333C16.7073 13.3333 17.3856 13.0524 17.8857 12.5523C18.3858 12.0522 18.6667 11.3739 18.6667 10.6667C18.6667 9.95942 18.3858 9.28114 17.8857 8.78104C17.3856 8.28095 16.7073 7.99999 16 7.99999ZM16 17.3333C19.56 17.3333 26.6667 19.1067 26.6667 22.6667V26.6667H5.33337V22.6667C5.33337 19.1067 12.44 17.3333 16 17.3333ZM16 19.8667C12.04 19.8667 7.86671 21.8133 7.86671 22.6667V24.1333H24.1334V22.6667C24.1334 21.8133 19.96 19.8667 16 19.8667Z" fill="black"/>
</svg>
