<svg width="32" height="32" viewBox="0 0 32 32" fill="none" xmlns="http://www.w3.org/2000/svg">
<path d="M15.7717 22.55L15.665 22.65L15.5477 22.55C10.4818 18.24 7.133 15.39 7.133 12.5C7.133 10.5 8.73275 9 10.8657 9C12.5082 9 14.1079 10 14.6732 11.36H16.6568C17.2221 10 18.8218 9 20.4642 9C22.5972 9 24.197 10.5 24.197 12.5C24.197 15.39 20.8482 18.24 15.7717 22.55ZM20.4642 7C18.6085 7 16.8275 7.81 15.665 9.08C14.5025 7.81 12.7215 7 10.8657 7C7.58093 7 5 9.41 5 12.5C5 16.27 8.6261 19.36 14.1186 24.03L15.665 25.35L17.2114 24.03C22.7039 19.36 26.33 16.27 26.33 12.5C26.33 9.41 23.7491 7 20.4642 7Z" fill="black"/>
</svg>
